<svg xmlns="http://www.w3.org/2000/svg" viewBox="0 0 360 100" role="img" aria-labelledby="title desc">
  <title id="title">NamasQr</title>
  <desc id="desc">NamasQr — Tradition meets technology</desc>
  <defs>
    <linearGradient id="g" x1="0%" y1="0%" x2="0%" y2="100%">
      <stop offset="0%" stop-color="#f97316"/>
      <stop offset="100%" stop-color="#1e3a8a"/>
    </linearGradient>
  </defs>
  <rect x="8" y="12" width="76" height="76" rx="14" fill="url(#g)" opacity="0.95"/>
  <g fill="#fff" opacity="0.95">
    <rect x="22" y="26" width="10" height="10" rx="2"/>
    <rect x="38" y="26" width="10" height="10" rx="2"/>
    <rect x="60" y="26" width="10" height="10" rx="2"/>
    <rect x="22" y="42" width="10" height="10" rx="2"/>
    <rect x="52" y="42" width="10" height="10" rx="2"/>
    <rect x="22" y="58" width="10" height="10" rx="2"/>
    <rect x="38" y="58" width="10" height="10" rx="2"/>
    <rect x="60" y="58" width="10" height="10" rx="2"/>
  </g>
  <path d="M40 48c4-8 14-8 18 0 4 8-2 14-9 18-7-4-13-10-9-18z" fill="#1e3a8a" opacity="0.35"/>
  <text x="100" y="58" font-family="ui-sans-serif,system-ui,sans-serif" font-size="34" font-weight="700" fill="#0f172a">Namas</text>
  <text x="218" y="58" font-family="ui-sans-serif,system-ui,sans-serif" font-size="34" font-weight="700" fill="#ea580c">Qr</text>
  <text x="100" y="84" font-family="ui-sans-serif,system-ui,sans-serif" font-size="10" font-weight="600" fill="#1e3a8a" letter-spacing="0.28em">TRADITION MEETS TECHNOLOGY</text>
</svg>
